<mxfile host="app.diagrams.net" modified="2023-11-29T03:19:40.832Z" agent="Mozilla/5.0 (Windows NT 10.0; Win64; x64) AppleWebKit/537.36 (KHTML, like Gecko) Chrome/119.0.0.0 Safari/537.36" etag="a9nIoAVoEtB4trnBFWdi" version="21.7.2" type="github">
  <diagram name="PÃ¡gina-1" id="iDb-N5hrL3OBQ-cpxeIT">
    <mxGraphModel dx="1050" dy="522" grid="0" gridSize="10" guides="1" tooltips="1" connect="1" arrows="1" fold="1" page="1" pageScale="1" pageWidth="827" pageHeight="1169" background="none" math="0" shadow="0">
      <root>
        <mxCell id="0" />
        <mxCell id="1" parent="0" />
        <mxCell id="ecxLgiCdHZmRWof-ZWAF-2" value="Registro de asistencia" style="html=1;whiteSpace=wrap;verticalAlign=top;labelBackgroundColor=none;strokeColor=#000000;fillColor=none;" vertex="1" parent="1">
          <mxGeometry x="334" y="200" width="160" height="170" as="geometry" />
        </mxCell>
        <mxCell id="ecxLgiCdHZmRWof-ZWAF-3" value="Entrada al aula" style="ellipse;whiteSpace=wrap;html=1;labelBackgroundColor=none;strokeColor=#000000;fillColor=none;" vertex="1" parent="1">
          <mxGeometry x="370" y="230" width="90" height="50" as="geometry" />
        </mxCell>
        <mxCell id="ecxLgiCdHZmRWof-ZWAF-4" value="Salida del aula" style="ellipse;whiteSpace=wrap;html=1;labelBackgroundColor=none;strokeColor=#000000;fillColor=none;" vertex="1" parent="1">
          <mxGeometry x="369" y="300" width="90" height="53" as="geometry" />
        </mxCell>
        <mxCell id="ecxLgiCdHZmRWof-ZWAF-5" value="" style="shape=umlActor;verticalLabelPosition=top;verticalAlign=bottom;html=1;labelPosition=center;align=center;labelBackgroundColor=none;strokeColor=#000000;fillColor=none;" vertex="1" parent="1">
          <mxGeometry x="230" y="190" width="30" height="60" as="geometry" />
        </mxCell>
        <mxCell id="ecxLgiCdHZmRWof-ZWAF-9" value="" style="endArrow=none;html=1;rounded=0;exitX=0.5;exitY=0.5;exitDx=0;exitDy=0;exitPerimeter=0;entryX=0;entryY=0.5;entryDx=0;entryDy=0;fontColor=#000000;labelBackgroundColor=none;strokeColor=#000000;" edge="1" parent="1" source="ecxLgiCdHZmRWof-ZWAF-5" target="ecxLgiCdHZmRWof-ZWAF-3">
          <mxGeometry width="50" height="50" relative="1" as="geometry">
            <mxPoint x="210" y="120" as="sourcePoint" />
            <mxPoint x="260" y="70" as="targetPoint" />
          </mxGeometry>
        </mxCell>
        <mxCell id="ecxLgiCdHZmRWof-ZWAF-10" value="" style="endArrow=none;html=1;rounded=0;exitX=0.5;exitY=0.5;exitDx=0;exitDy=0;exitPerimeter=0;entryX=0;entryY=0.5;entryDx=0;entryDy=0;fontColor=#000000;labelBackgroundColor=none;strokeColor=#000000;" edge="1" parent="1" source="ecxLgiCdHZmRWof-ZWAF-5" target="ecxLgiCdHZmRWof-ZWAF-4">
          <mxGeometry width="50" height="50" relative="1" as="geometry">
            <mxPoint x="205" y="230" as="sourcePoint" />
            <mxPoint x="380" y="195" as="targetPoint" />
          </mxGeometry>
        </mxCell>
        <mxCell id="ecxLgiCdHZmRWof-ZWAF-11" value="Profesor" style="shape=umlActor;verticalLabelPosition=bottom;verticalAlign=top;html=1;outlineConnect=0;labelBackgroundColor=none;strokeColor=#000000;fillColor=none;" vertex="1" parent="1">
          <mxGeometry x="200" y="300" width="30" height="60" as="geometry" />
        </mxCell>
        <mxCell id="ecxLgiCdHZmRWof-ZWAF-12" value="Personal&lt;br&gt;autorizado" style="shape=umlActor;verticalLabelPosition=bottom;verticalAlign=top;html=1;outlineConnect=0;labelBackgroundColor=none;strokeColor=#000000;fillColor=none;" vertex="1" parent="1">
          <mxGeometry x="260" y="300" width="30" height="60" as="geometry" />
        </mxCell>
        <mxCell id="ecxLgiCdHZmRWof-ZWAF-13" value="" style="endArrow=block;html=1;rounded=0;entryX=0;entryY=1;entryDx=0;entryDy=0;entryPerimeter=0;exitX=0.5;exitY=0;exitDx=0;exitDy=0;exitPerimeter=0;endFill=0;fontColor=#000000;labelBackgroundColor=none;strokeColor=#000000;" edge="1" parent="1" source="ecxLgiCdHZmRWof-ZWAF-11" target="ecxLgiCdHZmRWof-ZWAF-5">
          <mxGeometry width="50" height="50" relative="1" as="geometry">
            <mxPoint x="110" y="360" as="sourcePoint" />
            <mxPoint x="160" y="310" as="targetPoint" />
          </mxGeometry>
        </mxCell>
        <mxCell id="ecxLgiCdHZmRWof-ZWAF-14" value="" style="endArrow=block;html=1;rounded=0;entryX=1;entryY=1;entryDx=0;entryDy=0;entryPerimeter=0;exitX=0.5;exitY=0;exitDx=0;exitDy=0;exitPerimeter=0;endFill=0;fontColor=#000000;labelBackgroundColor=none;strokeColor=#000000;" edge="1" parent="1" source="ecxLgiCdHZmRWof-ZWAF-12" target="ecxLgiCdHZmRWof-ZWAF-5">
          <mxGeometry width="50" height="50" relative="1" as="geometry">
            <mxPoint x="125" y="370" as="sourcePoint" />
            <mxPoint x="190" y="260" as="targetPoint" />
          </mxGeometry>
        </mxCell>
      </root>
    </mxGraphModel>
  </diagram>
</mxfile>
